<svg width="500" height="500" viewBox="0 0 500 500" fill="none" xmlns="http://www.w3.org/2000/svg">
<g clip-path="url(#clip0_1_2)">
<g opacity="0.2">
<path d="M258.562 415.732C356.614 415.732 436.102 410.727 436.102 404.553C436.102 398.38 356.614 393.375 258.562 393.375C160.509 393.375 81.0222 398.38 81.0222 404.553C81.0222 410.727 160.509 415.732 258.562 415.732Z" fill="#531A01"/>
</g>
<path d="M271.168 252.39C271.168 252.39 266.272 207.093 291.627 184.766C308.576 169.841 313.625 205.83 322.928 216.064" fill="#FFAD40"/>
<path d="M322.93 216.063L271.166 252.392C271.166 252.392 269.528 237.225 273.061 220.114C275.63 207.655 280.945 194.17 291.627 184.765C303.902 173.955 309.936 189.858 315.865 203.331C318.121 208.463 320.367 213.243 322.93 216.063Z" fill="#FAA327"/>
<g opacity="0.5">
<path d="M322.93 216.063L321.665 216.954C319.938 214.23 318.327 210.736 316.712 207.059C310.783 193.585 304.749 177.683 292.474 188.493C281.792 197.898 276.476 211.382 273.908 223.841C271.489 235.542 271.495 246.335 271.74 251.991L271.166 252.392C271.166 252.392 269.528 237.225 273.061 220.114C275.63 207.655 280.945 194.17 291.627 184.765C303.902 173.955 309.936 189.858 315.865 203.331C318.121 208.463 320.367 213.243 322.93 216.063Z" fill="white"/>
</g>
<path d="M322.93 216.063L271.166 252.392C271.166 252.392 269.528 237.225 273.061 220.114C281.954 213.132 298.781 202.2 315.865 203.331C318.121 208.463 320.367 213.243 322.93 216.063Z" fill="#EF7F25"/>
<path d="M269.506 252.57C267.239 230.916 270.806 204.947 285.288 187.895C291.714 180.477 299.958 174.258 308.006 183.695C313.894 191.063 316.364 200.323 320.412 208.633C321.5 210.932 322.705 213.172 324.192 214.973C325.5 216.639 323.204 218.697 321.691 217.189C320.684 216.134 319.844 215.004 319.098 213.85C316.907 210.479 315.243 206.787 313.579 203.196C311.387 198.462 309.379 193.658 306.718 189.501C305.404 187.448 303.893 185.526 302.184 184.408C297.093 181.101 292.037 187.533 288.811 190.93C281.388 199.612 277.256 210.521 275.006 221.639C273.016 231.632 272.316 242.036 272.83 252.211C272.992 254.349 269.839 254.759 269.506 252.57Z" fill="#531A01"/>
<path d="M154.473 254.236C154.473 254.236 78.8594 236.256 65.4097 172.532C44.1476 71.7933 177.337 36.4365 214.834 103.728C237.854 145.039 211.531 192.478 167.283 182.388C156.941 180.03 148.73 168.985 151.49 164.13C154.586 158.685 165.719 159.785 166.311 150.614C166.665 145.126 162.132 142.032 156.064 142.696C131.098 145.427 108.564 203.93 163.324 233.446L154.473 254.236Z" fill="#FFAD40"/>
<path d="M167.282 182.386C160.518 180.842 154.662 175.582 152.199 170.768C152.199 170.763 152.193 170.763 152.193 170.763C150.889 168.222 150.538 165.809 151.491 164.132C154.584 158.683 165.716 159.786 166.313 150.614C166.664 145.126 162.134 142.033 156.066 142.697C136.536 144.831 118.5 181.082 137.767 210.903C143.133 219.211 151.396 227.017 163.326 233.447L154.472 254.237C154.472 254.237 78.8603 236.256 65.4096 172.535C44.1469 71.7932 177.34 36.4388 214.834 103.726C237.857 145.037 211.529 192.477 167.282 182.386Z" fill="#FFAD40"/>
<path d="M167.282 182.386C160.518 180.842 154.662 175.582 152.199 170.768C152.199 170.763 152.193 170.763 152.193 170.763C150.889 168.222 150.538 165.809 151.491 164.132C154.584 158.683 165.716 159.786 166.313 150.614C166.664 145.126 162.134 142.033 156.066 142.697C139.3 144.53 123.631 171.509 131.727 197.976C133.065 202.339 135.043 206.685 137.767 210.903C143.133 219.211 151.396 227.017 163.326 233.447L154.472 254.237C154.472 254.237 78.8603 236.256 65.4096 172.535C63.5987 163.948 62.9077 155.841 63.1863 148.23C66.1506 66.5109 180.532 42.1725 214.833 103.726C237.857 145.037 211.529 192.477 167.282 182.386Z" fill="#FFAD40"/>
<path d="M167.282 182.386C160.518 180.842 154.662 175.582 152.199 170.768C152.199 170.763 152.193 170.763 152.193 170.763C151.246 168.913 150.8 167.13 151.001 165.653C151.068 165.101 151.229 164.589 151.491 164.132C154.584 158.683 165.716 159.786 166.313 150.614C166.664 145.126 162.134 142.033 156.066 142.697C140.475 144.402 125.832 167.848 130.368 192.41C130.708 194.26 131.159 196.121 131.727 197.976C133.065 202.339 135.043 206.685 137.767 210.903C143.133 219.211 151.396 227.017 163.326 233.447L154.472 254.237C154.472 254.237 78.8603 236.256 65.4096 172.535C63.5987 163.948 62.9077 155.841 63.1863 148.23C66.1506 66.5109 180.532 42.1725 214.833 103.726C237.857 145.037 211.529 192.477 167.282 182.386Z" fill="#FAA327"/>
<path d="M180.209 147.36C176.749 162.711 157.832 165.241 151.001 165.653C151.068 165.102 151.229 164.589 151.491 164.132C154.584 158.683 165.716 159.786 166.313 150.615C166.664 145.126 162.134 142.034 156.066 142.697C140.475 144.402 125.832 167.849 130.368 192.41C130.368 192.41 114.499 150.921 132.468 131.102C152.193 109.354 185.491 123.925 180.209 147.36Z" fill="#EF7F25"/>
<path d="M163.326 233.447L154.472 254.237C154.472 254.237 78.8603 236.256 65.4096 172.535C63.5987 163.948 62.9077 155.841 63.1863 148.23C63.9887 153.033 73.0264 202.551 103.706 202.551C115.975 202.551 122.873 199.793 131.727 197.976C133.065 202.339 135.043 206.685 137.767 210.903C143.133 219.211 151.396 227.017 163.326 233.447Z" fill="#FF9343"/>
<path d="M163.326 233.447L154.472 254.237C154.472 254.237 78.8605 236.256 65.4097 172.535C63.8551 165.163 63.1252 158.142 63.1252 151.489C63.1252 150.943 63.1309 150.403 63.142 149.857C63.1531 149.31 63.1699 148.77 63.1865 148.23C63.9889 153.033 73.0266 202.551 103.706 202.551C107.707 202.551 111.133 202.255 114.243 201.799C121.419 206.663 129.716 209.399 137.767 210.903C143.133 219.211 151.397 227.017 163.326 233.447Z" fill="#FF9343"/>
<path d="M167.282 182.386C160.518 180.842 154.662 175.582 152.199 170.768C187.609 195.079 214.12 144.748 200.268 113.577C190.979 92.6746 168.035 85.0712 152.762 85.7063C122.712 86.9545 90.049 109.566 94.2725 164.182C96.7409 196.137 118.004 207.198 137.767 210.903C143.133 219.211 151.396 227.017 163.326 233.447L154.472 254.236C154.472 254.236 78.8603 236.256 65.4095 172.534C44.147 71.7932 177.34 36.4388 214.834 103.726C237.857 145.037 211.529 192.477 167.282 182.386Z" fill="#FFF3E9"/>
<g opacity="0.2">
<path d="M163.326 233.447L154.472 254.237C154.472 254.237 78.8605 236.256 65.4097 172.535C63.8551 165.163 63.1252 158.142 63.1252 151.489C63.1252 150.943 63.1309 150.403 63.142 149.857C63.1531 149.31 63.1699 148.77 63.1865 148.23C63.9889 153.033 73.0266 202.551 103.706 202.551C107.707 202.551 111.133 202.255 114.243 201.799C121.419 206.663 129.716 209.399 137.767 210.903C143.133 219.211 151.397 227.017 163.326 233.447Z" fill="#531A01"/>
</g>
<path d="M154.475 256.503C154.301 256.503 154.125 256.483 153.949 256.442C153.163 256.255 134.462 251.721 113.811 239.22C86.3277 222.583 68.824 199.685 63.192 173C58.1721 149.216 61.3731 127.034 72.4488 108.852C82.1535 92.9217 97.918 80.2477 116.838 73.165C151.195 60.3031 196.568 66.2921 216.814 102.624C229.102 124.676 228.46 150.372 215.18 168.088C203.97 183.038 186.329 189.055 166.779 184.598C158.753 182.768 152.138 176.326 149.752 170.909C148.404 167.846 148.323 165.115 149.52 163.01C151.138 160.163 154.131 158.839 157.025 157.559C161.215 155.705 163.797 154.37 164.048 150.468C164.154 148.828 163.696 147.507 162.687 146.542C161.322 145.236 158.996 144.656 156.31 144.949C145.845 146.094 135.698 158.514 132.707 173.84C128.226 196.802 140.074 218.339 164.399 231.45C165.501 232.044 165.913 233.419 165.319 234.521C164.725 235.623 163.352 236.036 162.248 235.441C136.084 221.338 123.377 197.985 128.258 172.971C131.668 155.497 143.258 141.816 155.818 140.443C159.896 139.996 163.451 140.999 165.82 143.266C167.814 145.172 168.765 147.764 168.572 150.76C168.131 157.602 162.99 159.876 158.859 161.704C156.535 162.732 154.34 163.703 153.46 165.25C153.02 166.024 153.185 167.456 153.901 169.082C155.783 173.355 161.289 178.697 167.787 180.178C185.514 184.221 201.466 178.823 211.552 165.368C223.761 149.084 224.272 125.321 212.854 104.831C193.854 70.7351 150.97 65.2278 118.427 77.4105C86.7164 89.2812 56.7189 120.38 67.6274 172.064C74.3972 204.139 97.6943 224.141 116.046 235.273C136.101 247.438 154.812 251.987 154.998 252.031C156.216 252.322 156.968 253.544 156.678 254.761C156.43 255.802 155.5 256.503 154.475 256.503Z" fill="#531A01"/>
<path d="M350.905 342.771C350.905 342.771 309.191 404.456 246.564 401.026C179.042 397.327 144.294 333.191 144.294 333.191C144.294 333.191 94.3854 325.38 86.8156 293.319C74.129 239.585 119.177 195.315 167.596 199.463C232.065 204.987 224.556 270.017 254.849 267.428" fill="#FFAD40"/>
<path d="M350.907 342.77C350.907 342.77 332.012 370.708 300.57 387.931C285.291 396.305 267.049 402.145 246.566 401.025C179.039 397.325 144.292 333.191 144.292 333.191C144.292 333.191 140.074 332.528 133.906 330.807C118.851 326.6 92.1832 316.057 86.8173 293.318C74.1299 239.588 119.179 195.313 167.594 199.464C232.062 204.986 224.557 270.016 254.852 267.425L350.907 342.77Z" fill="#FFAD40"/>
<path d="M350.907 342.77C350.907 342.77 332.012 370.708 300.57 387.931C300.564 387.936 300.553 387.936 300.547 387.942C285.275 396.311 267.038 402.145 246.566 401.025C179.039 397.325 144.292 333.191 144.292 333.191C144.292 333.191 140.074 332.528 133.906 330.807C132.168 330.322 130.279 329.754 128.284 329.091C112.983 324.009 91.5647 313.433 86.8173 293.318C74.1299 239.588 119.179 195.313 167.594 199.464C232.062 204.986 224.557 270.016 254.852 267.425L350.907 342.77Z" fill="#FFAD40"/>
<path d="M350.907 342.77C350.907 342.77 332.012 370.708 300.57 387.931C300.564 387.936 300.553 387.936 300.547 387.942C285.275 396.311 267.038 402.145 246.566 401.025C179.039 397.325 144.292 333.191 144.292 333.191C144.292 333.191 140.074 332.528 133.906 330.807C132.168 330.322 130.279 329.754 128.284 329.091C112.983 324.009 91.5647 313.433 86.8173 293.318C74.1299 239.588 119.179 195.313 167.594 199.464C213.753 203.42 223.013 237.883 235.678 256.187C240.693 263.441 246.248 268.161 254.852 267.425L257.32 269.364L350.907 342.77Z" fill="#FAA327"/>
<g opacity="0.5">
<path d="M230.965 248.581C220.439 231.759 194.078 197.965 143.234 207.961C100.68 216.33 86.4719 262.834 84.9507 268.256C88.7284 226.583 126.975 195.981 167.594 199.464C207.93 202.919 220.088 229.675 230.965 248.581Z" fill="white"/>
</g>
<g opacity="0.5">
<path d="M97.4095 241.17C89.5975 253.3 85.9703 264.717 85.0508 267.899C85.569 261.363 87.0065 254.426 89.8705 247.388C91.1409 244.251 92.7012 241.092 94.5844 237.944L97.4095 241.17Z" fill="white"/>
</g>
<path d="M257.32 269.365L245.68 285.083C245.68 285.083 226.473 276.92 235.678 256.187C240.693 263.442 246.248 268.161 254.852 267.426L257.32 269.365Z" fill="#EF7F25"/>
<path d="M300.547 387.942C285.275 396.311 267.037 402.145 246.566 401.025C179.039 397.325 144.292 333.191 144.292 333.191C144.292 333.191 140.074 332.529 133.906 330.807C132.168 330.322 130.279 329.754 128.284 329.091L150.577 305.922C156.701 308.864 163.811 319.869 178.449 351.964C193.092 384.058 223.03 392.55 245.117 392.856C265.94 393.14 284.94 380.47 284.94 380.47L300.547 387.942Z" fill="#EF7F25"/>
<path d="M300.547 387.942C292.067 392.589 282.678 396.456 272.492 398.779C271.818 398.935 271.138 399.086 270.453 399.219C268.614 399.604 266.748 399.933 264.859 400.206C263.895 400.345 262.92 400.473 261.939 400.579C256.974 401.142 251.842 401.315 246.566 401.025C179.039 397.325 144.292 333.191 144.292 333.191C144.292 333.191 140.074 332.528 133.906 330.807C137.472 323.457 142.253 317.267 148.115 317.969C155.899 318.905 162.295 325.948 171.539 337.214L171.545 337.22C173.64 341.561 175.936 346.447 178.448 351.963C193.092 384.058 223.03 392.55 245.117 392.856H245.145C258.139 395.715 271.495 395.408 283.887 390.605C290.518 388.036 296.006 387.39 300.514 387.925L300.547 387.942Z" fill="#FF9343"/>
<path d="M300.569 387.931C285.291 396.305 267.048 402.145 246.566 401.025C179.039 397.325 144.292 333.191 144.292 333.191C144.292 333.191 140.074 332.528 133.906 330.807C137.472 323.457 142.253 317.267 148.115 317.969C160.468 319.451 169.338 336.34 191.615 361.046C213.736 385.579 251.999 402.958 283.887 390.605C290.546 388.025 296.051 387.385 300.569 387.931Z" fill="#FFF3E9"/>
<g opacity="0.2">
<path d="M300.569 387.931C300.564 387.936 300.553 387.936 300.547 387.942C292.067 392.589 282.678 396.456 272.492 398.779C271.818 398.935 271.138 399.086 270.453 399.219C268.614 399.604 266.748 399.933 264.859 400.206C263.895 400.345 262.92 400.473 261.939 400.579C256.974 401.142 251.842 401.315 246.566 401.025C179.039 397.325 144.292 333.191 144.292 333.191C144.292 333.191 140.074 332.528 133.906 330.807C137.472 323.457 142.253 317.267 148.115 317.969C155.899 318.905 162.295 325.948 171.539 337.214L171.545 337.22C173.64 341.561 175.936 346.447 178.448 351.963C193.092 384.058 223.03 392.55 245.117 392.856H245.145C258.139 395.715 271.495 395.408 283.887 390.605C290.518 388.036 296.006 387.39 300.514 387.925C300.531 387.925 300.553 387.931 300.569 387.931Z" fill="#531A01"/>
</g>
<path d="M251.525 403.428C249.845 403.428 248.152 403.383 246.44 403.289C210.864 401.34 184.439 382.671 168.536 367.353C153.548 352.918 145.022 339.003 142.848 335.24C139.471 334.62 128.874 332.411 117.473 327.349C99.238 319.252 87.8738 307.665 84.61 293.84C78.7341 268.953 84.7821 243.772 101.203 224.752C117.942 205.365 142.835 195.067 167.789 197.205C184.972 198.678 198.719 204.363 209.814 214.586C219.351 223.374 225.334 233.995 230.613 243.366C233.893 249.19 236.992 254.691 240.399 258.634C244.715 263.627 249.108 265.642 254.656 265.17C255.903 265.062 257 265.988 257.107 267.235C257.214 268.482 256.289 269.579 255.042 269.686C248 270.288 242.258 267.718 236.969 261.598C233.265 257.311 230.058 251.619 226.663 245.591C216.434 227.432 203.705 204.832 167.402 201.722C143.889 199.711 120.426 209.424 104.635 227.714C89.1743 245.621 83.4837 269.343 89.0215 292.798C96.1503 322.992 144.161 330.876 144.645 330.952C145.342 331.061 145.95 331.491 146.286 332.111C146.372 332.269 155.069 348.12 171.784 364.189C187.118 378.929 212.56 396.893 246.687 398.763C278.268 400.493 304.354 384.9 320.682 371.515C338.506 356.902 348.925 341.653 349.028 341.501C349.729 340.465 351.138 340.192 352.175 340.894C353.211 341.595 353.484 343.004 352.782 344.041C352.349 344.681 341.959 359.908 323.658 374.937C307.568 388.15 282.301 403.428 251.525 403.428Z" fill="#531A01"/>
<path d="M159.414 311.963C158.797 333.146 151.18 340.893 150.982 354.535C150.879 361.63 151.148 372.325 165.647 378.392C173.977 381.878 173.291 391.623 171.645 396.284C169.069 403.585 160.456 404.305 156.563 404.305C147.522 404.305 132.158 406.567 120.504 400.155C113.488 396.294 100.624 388.195 98.2928 363.034C95.9623 337.877 96.7503 323.583 91.7117 307.85C90.1353 302.928 75.3754 270.04 94.5857 237.942" fill="#FFAD40"/>
<path d="M171.645 396.283C169.071 403.582 160.456 404.307 156.562 404.307C147.524 404.307 132.156 406.569 120.505 400.156C114.008 396.578 102.491 389.368 98.9751 368.334C98.691 366.657 98.4625 364.891 98.2897 363.035C95.9606 337.878 96.7518 323.585 91.7092 307.85C90.1323 302.93 75.3777 270.039 94.5843 237.944L159.414 311.962C158.796 333.147 151.179 340.892 150.984 354.538C150.906 359.631 151.023 366.579 156.467 372.335C158.595 374.597 161.554 376.681 165.644 378.391C173.98 381.88 173.289 391.625 171.645 396.283Z" fill="#FFAD40"/>
<path d="M172.453 392.962C172.269 394.216 171.974 395.353 171.645 396.283C169.071 403.582 160.456 404.307 156.562 404.307C147.524 404.307 132.156 406.569 120.505 400.156C114.008 396.578 102.491 389.368 98.9751 368.334C98.691 366.657 98.4625 364.891 98.2897 363.035C95.9606 337.878 96.7519 323.585 91.7092 307.85C90.2884 303.415 78.1471 276.224 89.8705 247.389C91.1409 244.252 92.7011 241.092 94.5844 237.944L159.414 311.962C158.796 333.147 151.179 340.892 150.984 354.538C150.906 359.631 151.023 366.579 156.467 372.335C158.595 374.597 161.554 376.681 165.644 378.391C172.308 381.183 173.205 387.97 172.453 392.962Z" fill="#FAA327"/>
<g opacity="0.5">
<path d="M97.4095 241.17C89.5975 253.3 85.9703 264.717 85.0508 267.899C85.569 261.363 87.0065 254.426 89.8705 247.388C91.1409 244.251 92.7012 241.092 94.5844 237.944L97.4095 241.17Z" fill="white"/>
</g>
<path d="M172.453 392.962C172.269 394.216 171.974 395.353 171.645 396.283C169.071 403.583 160.456 404.307 156.562 404.307C147.524 404.307 132.156 406.569 120.505 400.156C114.008 396.579 102.491 389.368 98.9751 368.334C98.691 366.657 98.4625 364.891 98.2897 363.035C95.9606 337.878 96.7519 323.586 91.7092 307.85C90.2884 303.415 78.1471 276.224 89.8705 247.389C86.8839 272.585 90.8679 292.622 103.505 315.25C113.278 332.752 96.7351 359.926 114.354 384.343C126.634 401.359 160.245 400.039 172.453 392.962Z" fill="#EF7F25"/>
<path d="M172.453 392.962C172.38 393.43 172.297 393.882 172.202 394.316C172.174 394.461 172.141 394.595 172.107 394.734C171.968 395.291 171.812 395.815 171.645 396.283C169.071 403.582 160.456 404.307 156.562 404.307C147.524 404.307 132.156 406.569 120.505 400.156C114.008 396.578 102.491 389.368 98.9751 368.334C101.488 369.136 104.419 370.061 107.795 370.897C109.099 375.422 111.167 379.929 114.354 384.342C126.634 401.359 160.245 400.039 172.453 392.962Z" fill="#F9D3B7"/>
<path d="M171.645 396.283C169.071 403.582 160.456 404.307 156.562 404.307C147.524 404.307 132.156 406.569 120.505 400.156C114.008 396.578 102.491 389.368 98.9751 368.334C105.154 370.307 113.88 373.048 125.453 373.293C135.288 373.499 146.186 371.995 156.467 372.335C158.595 374.597 161.554 376.681 165.644 378.392C173.98 381.88 173.289 391.625 171.645 396.283Z" fill="#FFF3E9"/>
<g opacity="0.2">
<path d="M172.453 392.962C172.38 393.43 172.297 393.882 172.202 394.316C172.174 394.461 172.141 394.595 172.107 394.734C171.968 395.291 171.812 395.815 171.645 396.283C169.071 403.582 160.456 404.307 156.562 404.307C147.524 404.307 132.156 406.569 120.505 400.156C114.008 396.578 102.491 389.368 98.9751 368.334C101.488 369.136 104.419 370.061 107.795 370.897C109.099 375.422 111.167 379.929 114.354 384.342C126.634 401.359 160.245 400.039 172.453 392.962Z" fill="#531A01"/>
</g>
<path d="M160.528 311.996C161.108 318.851 160.282 325.857 158.452 332.482C156.625 339.131 154.061 345.323 153.513 351.608C153.253 354.714 153.253 358.032 153.694 361.09C154.457 367.233 158.438 372.176 163.955 374.975C165.371 375.7 166.887 376.345 168.295 377.097C171.934 379.154 174.289 383.232 174.774 387.28C175.744 395.744 172.7 403.263 163.968 405.603C161.288 406.364 158.602 406.561 155.871 406.554C154.277 406.534 150.03 406.757 148.358 406.802C139.931 407.116 130.682 406.984 122.551 403.586C114.424 400.094 107.143 394.109 102.796 386.312C97.4897 377.16 96.1476 366.553 95.4771 356.186C94.3068 342.846 94.3262 329.403 91.6326 316.288C91.1147 313.822 90.3538 310.976 89.6003 308.569C85.7202 298.374 82.9676 287.643 82.628 276.661C82.0515 262.788 85.4662 248.709 92.6406 236.779C94.2217 234.285 97.9901 236.391 96.5521 239.069C93.2181 244.688 90.6567 250.747 89.086 257.091C84.9355 273.508 87.5502 290.91 93.6215 306.547C93.9025 307.3 94.5171 309.504 94.7716 310.322C97.0576 318.589 97.9451 327.191 98.5423 335.696C99.0167 342.446 99.3885 349.152 99.9208 355.838C100.607 365.815 101.698 375.473 106.661 384.091C110.549 391.063 116.988 396.315 124.269 399.473C131.796 402.564 139.921 402.625 148.195 402.348C151.103 402.195 155.354 402.098 158.237 402.01C164.685 401.595 169.589 399.108 170.225 392.339C170.838 387.702 169.617 382.758 165.238 380.811C154.179 376.214 148.481 368.574 148.601 356.439C148.278 347.683 151.718 339.384 154.178 331.264C156.136 324.917 157.303 318.515 158.3 311.931C158.466 310.649 160.421 310.641 160.528 311.996Z" fill="#531A01"/>
<path d="M249.118 299.673C245.046 287.795 242.127 270.545 250.448 248.801C255.586 235.374 294.889 209.377 331.432 206.915C367.976 204.454 401.111 225.66 400.101 280.696C400.101 280.696 417.416 279.581 421.747 286.16C423.539 288.883 424.077 308.476 415.243 323.982C403.687 344.265 375.725 359.74 322.344 363.503C322.344 363.503 294.358 361.63 273.775 343.182C253.191 324.735 249.118 299.673 249.118 299.673Z" fill="#FFAD40"/>
<path d="M415.243 323.982C403.687 344.264 375.724 359.739 322.344 363.501C322.344 363.501 318.993 363.275 313.756 362.22C303.856 360.221 287.233 355.245 273.776 343.183C253.192 324.736 249.118 299.673 249.118 299.673C245.045 287.795 242.129 270.546 250.446 248.799C255.585 235.373 294.889 209.378 331.435 206.913C367.976 204.453 401.11 225.663 400.1 280.697C400.1 280.697 417.415 279.58 421.745 286.16C423.539 288.881 424.077 308.476 415.243 323.982Z" fill="#FFAD40"/>
<path d="M415.241 323.981C403.685 344.263 375.724 359.742 322.345 363.503C322.345 363.503 318.991 363.275 313.758 362.222C303.857 360.221 287.23 355.245 273.774 343.182C253.191 324.733 249.118 299.67 249.118 299.67C247.68 295.475 246.388 290.61 245.68 285.111C245.68 285.111 245.68 285.1 245.68 285.083C244.387 275.026 245.073 262.851 250.444 248.798C255.587 235.375 294.886 209.376 331.433 206.914C357.047 205.186 380.99 215.093 392.663 240.128C397.65 250.81 400.403 264.238 400.102 280.698C400.102 280.698 417.414 279.578 421.744 286.158C423.538 288.883 424.078 308.474 415.241 323.981Z" fill="#FFAD40"/>
<path d="M415.241 323.981C413.38 327.246 411.101 330.383 408.348 333.364C394.034 348.938 367.138 360.349 322.345 363.503C322.345 363.503 318.991 363.275 313.759 362.221C306.81 360.817 296.552 357.948 286.4 352.192C282.082 349.746 277.786 346.781 273.774 343.182C253.191 324.733 249.118 299.67 249.118 299.67C247.681 295.475 246.388 290.61 245.68 285.111C245.68 285.111 245.68 285.1 245.68 285.083C244.387 275.025 245.073 262.851 250.444 248.798C255.587 235.375 294.886 209.376 331.433 206.914C357.047 205.186 380.99 215.093 392.663 240.128C397.65 250.81 400.403 264.238 400.102 280.698C400.102 280.698 417.414 279.578 421.744 286.158C423.538 288.883 424.078 308.474 415.241 323.981Z" fill="#FAA327"/>
<path d="M408.349 333.364C394.034 348.938 367.138 360.349 322.345 363.503C322.345 363.503 318.991 363.275 313.759 362.222C306.81 360.817 296.552 357.948 286.4 352.192C283.113 343.46 280.689 334.857 283.397 333.342C288.584 330.433 356.813 365.309 408.349 333.364Z" fill="#FF9343"/>
<path d="M408.348 333.364C407.68 334.1 406.983 334.818 406.253 335.526C406.008 335.766 405.763 336 405.512 336.234C405.267 336.468 405.016 336.702 404.76 336.936C404.504 337.17 404.247 337.404 403.986 337.633C403.066 338.446 402.108 339.243 401.11 340.017C400.899 340.19 400.687 340.357 400.47 340.519C400.258 340.686 400.041 340.847 399.823 341.003C399.545 341.215 399.255 341.427 398.965 341.633C398.352 342.079 397.728 342.513 397.093 342.943C396.736 343.188 396.374 343.427 396.006 343.661C395.706 343.862 395.399 344.057 395.093 344.252C394.792 344.441 394.485 344.631 394.179 344.815C393.884 344.999 393.588 345.177 393.287 345.355C393.003 345.522 392.719 345.689 392.429 345.857C392.05 346.08 391.66 346.297 391.27 346.514C390.819 346.77 390.362 347.015 389.9 347.261C389.471 347.495 389.03 347.723 388.59 347.946C388.15 348.175 387.699 348.397 387.247 348.62C384.3 350.08 381.135 351.451 377.753 352.721C377.43 352.849 377.106 352.966 376.778 353.089C375.897 353.418 375 353.735 374.086 354.042C373.68 354.187 373.267 354.326 372.849 354.46C372.782 354.482 372.721 354.504 372.654 354.526C372.209 354.671 371.757 354.816 371.306 354.961C370.832 355.112 370.359 355.262 369.88 355.407C369.4 355.552 368.921 355.702 368.431 355.841C367.456 356.131 366.469 356.415 365.466 356.683C364.965 356.822 364.458 356.956 363.951 357.09C363.444 357.223 362.926 357.357 362.413 357.485C362.001 357.591 361.594 357.691 361.182 357.792C358.345 358.483 355.398 359.129 352.328 359.72C351.938 359.792 351.542 359.87 351.146 359.942C351.007 359.97 350.873 359.992 350.734 360.015C350.233 360.109 349.731 360.199 349.23 360.288C347.486 360.6 345.703 360.89 343.886 361.163C343.457 361.229 343.034 361.291 342.605 361.352C342.304 361.396 341.997 361.441 341.691 361.486C341.195 361.558 340.699 361.625 340.198 361.692C338.103 361.976 335.963 362.238 333.773 362.478C333.205 362.544 332.636 362.606 332.057 362.661C331.271 362.745 330.48 362.823 329.683 362.895C329.004 362.962 328.324 363.023 327.633 363.085C327.02 363.14 326.401 363.191 325.777 363.241C325.332 363.28 324.88 363.313 324.434 363.347C323.743 363.402 323.047 363.453 322.345 363.503C322.345 363.503 318.991 363.274 313.759 362.221C315.837 356.254 317.403 349.289 317.352 341.911C342.917 347.935 378.444 351.902 408.348 333.364Z" fill="#F9D3B7"/>
<g opacity="0.5">
<path d="M392.663 240.128C379.042 217.815 345.962 204.02 302.431 216.064C294.162 218.352 288.425 224.274 280.27 228.795C245.737 247.939 245.63 283.991 245.68 285.083C244.387 275.026 245.072 262.851 250.444 248.798C255.587 235.375 294.886 209.376 331.433 206.914C357.047 205.186 380.99 215.093 392.663 240.128Z" fill="white"/>
</g>
<path d="M415.243 323.982C403.687 344.264 375.724 359.74 322.344 363.501C322.344 363.501 318.993 363.275 313.756 362.22C316.795 353.514 318.732 342.686 316.154 331.53C310.81 308.425 312.454 292.75 325.429 285.115C345.04 273.57 360.074 289.829 376.887 289.588C390.379 289.393 400.1 280.697 400.1 280.697C400.1 280.697 417.415 279.58 421.745 286.16C423.539 288.881 424.077 308.476 415.243 323.982Z" fill="white"/>
<g opacity="0.2">
<path d="M408.348 333.364C407.68 334.1 406.983 334.818 406.253 335.526C406.008 335.766 405.763 336 405.512 336.234C405.267 336.468 405.016 336.702 404.76 336.936C404.504 337.17 404.247 337.404 403.986 337.633C403.066 338.446 402.108 339.243 401.11 340.017C400.899 340.19 400.687 340.357 400.47 340.519C400.258 340.686 400.041 340.847 399.823 341.003C399.545 341.215 399.255 341.427 398.965 341.633C398.352 342.079 397.728 342.513 397.093 342.943C396.736 343.188 396.374 343.427 396.006 343.661C395.706 343.862 395.399 344.057 395.093 344.252C394.792 344.441 394.485 344.631 394.179 344.815C393.884 344.999 393.588 345.177 393.287 345.355C393.003 345.522 392.719 345.689 392.429 345.857C392.05 346.08 391.66 346.297 391.27 346.514C390.819 346.77 390.362 347.015 389.9 347.261C389.471 347.495 389.03 347.723 388.59 347.946C388.15 348.175 387.699 348.397 387.247 348.62C384.3 350.08 381.135 351.451 377.753 352.721C377.43 352.849 377.106 352.966 376.778 353.089C375.897 353.418 375 353.735 374.086 354.042C373.68 354.187 373.267 354.326 372.849 354.46C372.782 354.482 372.721 354.504 372.654 354.526C372.209 354.671 371.757 354.816 371.306 354.961C370.832 355.112 370.359 355.262 369.88 355.407C369.4 355.552 368.921 355.702 368.431 355.841C367.456 356.131 366.469 356.415 365.466 356.683C364.965 356.822 364.458 356.956 363.951 357.09C363.444 357.223 362.926 357.357 362.413 357.485C362.001 357.591 361.594 357.691 361.182 357.792C358.345 358.483 355.398 359.129 352.328 359.72C351.938 359.792 351.542 359.87 351.146 359.942C351.007 359.97 350.873 359.992 350.734 360.015C350.233 360.109 349.731 360.199 349.23 360.288C347.486 360.6 345.703 360.89 343.886 361.163C343.457 361.229 343.034 361.291 342.605 361.352C342.304 361.396 341.997 361.441 341.691 361.486C341.195 361.558 340.699 361.625 340.198 361.692C338.103 361.976 335.963 362.238 333.773 362.478C333.205 362.544 332.636 362.606 332.057 362.661C331.271 362.745 330.48 362.823 329.683 362.895C329.004 362.962 328.324 363.023 327.633 363.085C327.02 363.14 326.401 363.191 325.777 363.241C325.332 363.28 324.88 363.313 324.434 363.347C323.743 363.402 323.047 363.453 322.345 363.503C322.345 363.503 318.991 363.274 313.759 362.221C315.837 356.254 317.403 349.289 317.352 341.911C342.917 347.935 378.444 351.902 408.348 333.364Z" fill="#531A01"/>
</g>
<path d="M419.606 301.02C413.441 301.651 404.751 292.047 406.531 287.905C408.289 283.815 415.027 283.552 420.08 284.402C420.746 284.915 421.31 285.499 421.745 286.16C422.579 287.422 423.142 292.328 422.621 298.771C422.508 300.173 421.021 300.875 419.606 301.02Z" fill="#531A01"/>
<g opacity="0.5">
<path d="M420.316 292.055C417.38 292.355 413.412 289.721 413.696 288.023C413.893 286.84 417.623 285.794 420.381 286.611C420.698 286.855 420.989 291.986 420.316 292.055Z" fill="white"/>
</g>
<path d="M244.574 285.254C241.596 272.29 243.909 258.417 249.064 246.294C255.128 235.608 268.847 226.857 279.37 220.934C310.347 203.755 354.987 194.396 382.854 222.061C398.154 237.264 402.769 259.932 402.367 280.738L399.955 278.434C406.971 278.226 416.827 278.437 422.322 283.345C423.11 284.116 423.852 285.041 424.197 286.094C425.017 288.743 425.067 291.61 425.085 294.29C425.056 297.918 424.707 301.501 424.112 305.049C420.304 328.539 405.477 343.178 384.25 352.492C371.251 358.177 357.411 361.424 343.445 363.521C336.489 364.548 329.5 365.266 322.503 365.763C321.255 365.852 320.171 364.912 320.082 363.663C319.993 362.414 320.934 361.33 322.182 361.242C335.092 360.327 347.944 358.654 360.522 355.613C377.663 351.317 395.127 344.579 407.225 331.226C413.996 323.721 417.996 314.277 419.642 304.291C420.467 299.024 420.999 293.505 420.095 288.264C420.034 287.962 419.96 287.704 419.857 287.433C419.907 287.486 419.669 287.147 419.495 286.948C419.349 286.767 419.007 286.457 418.831 286.307C415.101 283.588 409.807 283.201 405.236 282.936C403.576 282.873 401.843 282.874 400.247 282.958C398.943 283.031 397.836 281.982 397.835 280.677C398.186 260.886 394.081 239.642 379.67 225.23C353.187 199.046 310.934 208.721 281.651 225.078C272.559 230.117 256.529 240.414 252.48 249.938C248.159 261.1 246.468 273 246.784 284.97C246.826 286.299 244.879 286.544 244.574 285.254Z" fill="#531A01"/>
<path d="M250.671 252.39C250.671 252.39 245.775 207.093 271.13 184.766C288.079 169.841 293.128 205.83 302.431 216.064C302.431 216.064 301.817 230.47 285.011 242.76C266.571 256.244 250.671 252.39 250.671 252.39Z" fill="#FFAD40"/>
<path d="M302.431 216.063C302.431 216.063 301.818 230.472 285.013 242.758C272.515 251.896 261.193 253.072 255.186 252.883C252.328 252.793 250.673 252.392 250.673 252.392C250.673 252.392 245.775 207.092 271.127 184.765C277.441 179.21 282.099 180.709 285.943 185.317C292.423 193.073 296.591 209.638 302.431 216.063Z" fill="#FAA327"/>
<g opacity="0.5">
<path d="M285.943 185.317C281.413 183.461 274.459 183.762 267.099 195.82C254.233 216.887 255.158 252.002 255.186 252.883C252.328 252.793 250.673 252.392 250.673 252.392C250.673 252.392 245.775 207.092 271.127 184.765C277.44 179.21 282.098 180.709 285.943 185.317Z" fill="white"/>
</g>
<path d="M249.009 252.57C246.741 230.916 250.309 204.946 264.791 187.895C271.217 180.477 279.461 174.258 287.509 183.695C293.397 191.063 295.867 200.323 299.914 208.633C301.003 210.932 302.208 213.172 303.695 214.973C305.002 216.639 302.707 218.697 301.194 217.189C300.187 216.134 299.347 215.004 298.601 213.85C296.41 210.479 294.746 206.787 293.082 203.196C290.89 198.462 288.882 193.658 286.221 189.501C284.907 187.448 283.396 185.526 281.687 184.408C276.596 181.101 271.54 187.533 268.314 190.93C260.891 199.612 256.759 210.521 254.509 221.639C252.519 231.632 251.819 242.036 252.333 252.211C252.495 254.349 249.342 254.76 249.009 252.57Z" fill="#531A01"/>
<path d="M268.24 239.585C268.24 239.585 264.26 209.293 276.361 193.402C284.593 182.592 289.374 206.725 296.858 216.791C296.858 216.791 291.035 218.534 284.26 223.468C275.862 229.585 268.24 239.585 268.24 239.585Z" fill="#FFF3E9"/>
<path d="M296.859 216.793C296.859 216.793 293.315 217.857 288.534 220.66C287.191 221.457 285.748 222.381 284.26 223.468C280.332 226.332 276.571 230.048 273.679 233.191C270.397 236.757 268.241 239.588 268.241 239.588C268.241 239.588 264.257 209.293 276.359 193.402C284.595 182.592 289.375 206.724 296.859 216.793Z" fill="#FFF3E9"/>
<g opacity="0.2">
<path d="M296.859 216.793C296.859 216.793 293.315 217.857 288.534 220.66C283.564 212.658 281.034 200.578 277.34 206.724C272.922 214.068 273.367 228.204 273.679 233.191C270.397 236.757 268.241 239.588 268.241 239.588C268.241 239.588 264.257 209.293 276.359 193.402C284.595 182.592 289.375 206.724 296.859 216.793Z" fill="#531A01"/>
</g>
<path d="M268.24 241.852C268.046 241.852 267.85 241.827 267.657 241.775C266.77 241.539 266.112 240.791 265.993 239.881C265.825 238.606 262.034 208.474 274.558 192.029C276.566 189.391 278.741 188.182 281.019 188.441C285.778 188.977 288.831 195.696 292.366 203.475C294.362 207.869 296.427 212.412 298.677 215.439C299.118 216.032 299.242 216.803 299.009 217.504C298.777 218.206 298.216 218.75 297.508 218.962C297.457 218.978 291.936 220.682 285.595 225.301C277.572 231.144 270.117 240.862 270.043 240.96C269.608 241.53 268.936 241.852 268.24 241.852ZM280.441 192.942C279.888 192.942 279.046 193.618 278.164 194.775C269.77 205.798 269.559 224.602 270.044 233.841C273.128 230.304 277.859 225.327 282.926 221.636C287.103 218.594 290.929 216.713 293.393 215.673C291.537 212.609 289.867 208.933 288.239 205.351C285.908 200.22 282.715 193.194 280.512 192.945C280.489 192.943 280.465 192.942 280.441 192.942Z" fill="#531A01"/>
<path d="M283.384 226.354C282.973 226.354 282.561 226.24 282.196 226.011C279.146 224.088 278.283 221.733 278.096 220.095C277.805 217.508 278.743 215.85 279.58 214.913C280.401 213.995 281.421 213.419 282.387 213.058C281.636 210.659 281.562 207.631 283.776 205.132C285.416 203.29 288.013 202.462 290.901 202.855C291.659 202.958 292.312 203.444 292.628 204.14C294.698 208.693 296.579 212.687 298.644 215.462C299.078 216.045 299.201 216.804 298.972 217.494C298.743 218.183 298.193 218.718 297.498 218.927C297.408 218.954 291.899 220.662 285.573 225.271C285.304 225.469 285.025 225.675 284.746 225.89C284.346 226.198 283.866 226.354 283.384 226.354ZM289.138 207.229C288.268 207.293 287.557 207.59 287.11 208.092C285.311 210.121 287.43 213.418 287.452 213.451C287.9 214.136 287.939 215.017 287.55 215.736C287.161 216.456 286.412 216.91 285.593 216.91C285.123 216.917 283.584 217.112 282.896 217.892C282.773 218.033 282.398 218.458 282.525 219.593C282.555 219.856 282.631 220.523 283.419 221.329C287.432 218.471 291.079 216.689 293.445 215.692C291.967 213.256 290.584 210.381 289.138 207.229Z" fill="#531A01"/>
<path d="M286.98 212.937C287.72 214.002 288.74 215.059 289.801 215.807C290.306 216.163 290.426 216.862 290.069 217.366C289.83 217.705 289.435 217.87 289.05 217.835C287.209 217.628 285.533 217.092 283.878 216.262C282.711 215.673 282.242 214.249 282.831 213.081C283.606 211.426 286.102 211.36 286.98 212.937Z" fill="#531A01"/>
<path d="M377.888 292.889C383.317 292.889 387.719 286.383 387.719 278.358C387.719 270.333 383.317 263.828 377.888 263.828C372.459 263.828 368.058 270.333 368.058 278.358C368.058 286.383 372.459 292.889 377.888 292.889Z" fill="#531A01"/>
<path d="M380.925 281.469C383.088 281.31 384.627 278.269 384.363 274.677C384.099 271.085 382.131 268.302 379.969 268.461C377.806 268.62 376.267 271.661 376.531 275.253C376.795 278.845 378.762 281.628 380.925 281.469Z" fill="white"/>
<g opacity="0.3">
<path d="M374.205 287.293C375.54 287.108 376.4 285.36 376.127 283.388C375.855 281.416 374.552 279.967 373.218 280.151C371.884 280.336 371.023 282.084 371.296 284.056C371.569 286.028 372.871 287.477 374.205 287.293Z" fill="white"/>
</g>
<path d="M342.838 321.092C353.115 321.092 361.446 314.301 361.446 305.922C361.446 297.544 353.115 290.753 342.838 290.753C332.562 290.753 324.231 297.544 324.231 305.922C324.231 314.301 332.562 321.092 342.838 321.092Z" fill="#FF8080"/>
<path d="M364.3 247.097C363.715 243.77 373.612 233.194 379.579 236.095C385.546 238.995 384.621 246.097 381.007 248.057C375.758 250.903 364.885 250.424 364.3 247.097Z" fill="#FFF3E9"/>
<path d="M424.068 305.059C423.446 310.344 420.613 315.521 416.161 318.525C407.147 324.152 396.854 321.604 396.277 309.855C396.24 308.558 398.08 308.262 398.46 309.486C399.275 312.192 400.766 315.034 402.772 316.2C406.099 318.062 410.523 316.53 413.533 314.563C416.76 312.228 418.81 308.46 419.634 304.603C420.082 301.719 424.244 302.154 424.068 305.059Z" fill="#531A01"/>
<path d="M279.704 391.446C279.704 391.446 327.204 405.428 376.235 405.428C395.063 405.428 402.169 405.215 405.5 404.327C408.413 403.55 414.354 401.22 415.557 393.647C416.394 388.379 414.428 380.101 408.081 375.588C400.513 370.206 386.138 370.157 386.138 370.157C386.138 370.157 313.297 350.821 282.236 332.673" fill="#FFAD40"/>
<path d="M415.559 393.647C414.355 401.22 408.415 403.549 405.501 404.329C402.169 405.215 395.065 405.427 376.237 405.427C372.276 405.427 368.325 405.337 364.402 405.165C319.838 403.259 279.703 391.447 279.703 391.447L282.238 332.673C313.296 350.821 386.139 370.156 386.139 370.156C386.139 370.156 386.902 370.156 388.167 370.229C388.172 370.229 388.172 370.229 388.178 370.229C392.413 370.463 402.264 371.449 408.081 375.589C414.427 380.102 416.394 388.376 415.559 393.647Z" fill="#FFAD40"/>
<path d="M415.559 393.647C415.414 394.572 415.196 395.419 414.918 396.194C412.951 401.766 408.059 403.644 405.501 404.329C402.169 405.215 395.065 405.427 376.237 405.427C372.276 405.427 368.325 405.338 364.402 405.165C319.838 403.259 279.703 391.447 279.703 391.447L280.054 383.317L282.238 332.673C313.296 350.821 386.139 370.156 386.139 370.156C386.139 370.156 386.902 370.156 388.167 370.229C388.172 370.229 388.172 370.229 388.178 370.229C392.413 370.463 402.264 371.449 408.081 375.589C414.427 380.102 416.394 388.376 415.559 393.647Z" fill="#FFAD40"/>
<path d="M415.559 393.647C415.414 394.572 415.196 395.419 414.918 396.194C412.951 401.766 408.059 403.644 405.501 404.329C402.169 405.215 395.065 405.427 376.237 405.427C372.276 405.427 368.325 405.338 364.402 405.165C319.838 403.259 279.703 391.447 279.703 391.447L280.054 383.317L282.238 332.673C313.296 350.821 386.139 370.156 386.139 370.156C386.139 370.156 386.902 370.156 388.167 370.229C388.172 370.229 388.172 370.229 388.178 370.229C389.688 370.312 391.917 370.491 394.424 370.881C398.937 371.571 404.342 372.925 408.081 375.589C414.427 380.102 416.394 388.376 415.559 393.647Z" fill="#FAA327"/>
<g opacity="0.5">
<path d="M394.424 370.88C392.056 373.538 388.106 376.057 381.999 374.77C370.454 372.34 289.164 348.436 282.238 332.673C313.296 350.821 386.139 370.156 386.139 370.156C386.139 370.156 386.902 370.156 388.167 370.229C388.172 370.229 388.172 370.229 388.178 370.229C389.688 370.312 391.917 370.49 394.424 370.88Z" fill="white"/>
</g>
<path d="M414.918 396.194C412.951 401.766 408.059 403.644 405.501 404.329C402.169 405.215 395.065 405.427 376.237 405.427C372.275 405.427 368.325 405.338 364.402 405.165C319.837 403.259 279.702 391.447 279.702 391.447L280.053 383.317C280.053 383.317 325.521 396.361 360.006 397.682C380.338 398.456 403.573 399.972 414.918 396.194Z" fill="#EF7F25"/>
<path d="M414.918 396.194C414.857 396.367 414.79 396.539 414.723 396.707C414.684 396.812 414.639 396.918 414.595 397.019C414.55 397.124 414.5 397.23 414.45 397.336C414.383 397.487 414.31 397.632 414.232 397.776C414.193 397.86 414.154 397.938 414.11 398.016C414.037 398.15 413.965 398.278 413.887 398.4C413.792 398.562 413.692 398.724 413.592 398.874C413.486 399.036 413.374 399.192 413.263 399.348C413.163 399.481 413.057 399.621 412.951 399.749C412.176 400.713 411.307 401.487 410.416 402.106C410.288 402.195 410.159 402.278 410.031 402.362C409.769 402.535 409.502 402.691 409.246 402.836C409.123 402.903 409.006 402.969 408.883 403.031C408.627 403.164 408.382 403.281 408.137 403.393C408.014 403.449 407.892 403.504 407.775 403.554C406.922 403.911 406.142 404.156 405.501 404.329C402.169 405.215 395.065 405.427 376.237 405.427C372.276 405.427 368.325 405.337 364.402 405.165C363.929 402.942 363.633 400.44 363.617 397.826C383.024 398.618 404.242 399.749 414.918 396.194Z" fill="#F9D3B7"/>
<path d="M415.559 393.647C414.355 401.22 408.415 403.549 405.501 404.329C402.169 405.215 395.065 405.427 376.237 405.427C372.276 405.427 368.325 405.338 364.402 405.165C361.823 393.063 364.503 372.881 388.167 370.229C388.172 370.229 388.172 370.229 388.178 370.229C392.413 370.463 402.264 371.449 408.081 375.589C414.427 380.102 416.394 388.376 415.559 393.647Z" fill="#FFF3E9"/>
<g opacity="0.2">
<path d="M414.918 396.194C414.857 396.367 414.79 396.539 414.723 396.707C414.684 396.812 414.639 396.918 414.595 397.019C414.55 397.124 414.5 397.23 414.45 397.336C414.383 397.487 414.31 397.632 414.232 397.776C414.193 397.86 414.154 397.938 414.11 398.016C414.037 398.15 413.965 398.278 413.887 398.4C413.792 398.562 413.692 398.724 413.592 398.874C413.486 399.036 413.374 399.192 413.263 399.348C413.163 399.481 413.057 399.621 412.951 399.749C412.176 400.713 411.307 401.487 410.416 402.106C410.288 402.195 410.159 402.278 410.031 402.362C409.769 402.535 409.502 402.691 409.246 402.836C409.123 402.903 409.006 402.969 408.883 403.031C408.627 403.164 408.382 403.281 408.137 403.393C408.014 403.449 407.892 403.504 407.775 403.554C406.922 403.911 406.142 404.156 405.501 404.329C402.169 405.215 395.065 405.427 376.237 405.427C372.276 405.427 368.325 405.337 364.402 405.165C363.929 402.942 363.633 400.44 363.617 397.826C383.024 398.618 404.242 399.749 414.918 396.194Z" fill="#531A01"/>
</g>
<path d="M280.019 390.377C294.996 392.971 310.508 396.664 325.541 398.841C344.558 401.736 363.867 403.331 383.105 403.097C386.974 403.089 390.842 403.068 394.684 402.98C398.361 402.808 402.067 402.937 405.603 401.938C412.985 399.788 414.814 392.602 412.667 385.928C411.135 380.786 407.446 376.984 402.446 375.229C397.303 373.361 391.581 372.616 386.13 372.48C376.942 370.254 367.914 367.436 358.858 364.771C345.576 360.765 332.38 356.424 319.362 351.602C310.698 348.285 301.988 345.007 293.689 340.825C289.528 338.699 285.478 336.342 281.673 333.635C281.168 333.282 281.045 332.585 281.399 332.08C281.702 331.646 282.259 331.494 282.73 331.684C289.056 334.374 295.367 337.19 301.737 339.767C320.811 347.727 340.493 354.142 360.239 360.228C369.038 362.897 377.882 365.508 386.734 367.912L386.146 367.834C388.244 367.872 390.188 368.03 392.198 368.256C403.156 369.509 413.525 372.997 416.964 384.611C420.042 394.603 416.083 404.316 405.356 406.69C398 407.913 390.523 407.556 383.124 407.733C363.62 408.038 344.037 406.589 324.821 403.474C313.291 401.534 301.752 399.477 290.503 396.265C286.75 395.191 283.043 393.992 279.39 392.515C278.213 392.002 278.629 390.16 280.019 390.377Z" fill="#531A01"/>
<path d="M408.373 384.496C410.715 390.351 412.028 397.854 407.744 403.19C406.222 405.072 404.078 406.321 401.938 407.086C400.777 407.501 399.5 406.896 399.086 405.736C398.639 404.507 399.371 403.136 400.64 402.822C408.619 401.109 408.245 391.458 406.282 385.255C405.881 383.919 407.82 383.212 408.373 384.496Z" fill="#531A01"/>
<path d="M162.033 382.412C164.73 386.514 165.149 391.765 164.488 396.527C163.691 402.325 159.485 406.159 153.662 406.592C152.436 406.717 151.342 405.823 151.218 404.597C151.081 403.308 152.1 402.161 153.396 402.142C157.511 402.179 160.287 399.912 161.187 395.858C162.024 392.337 161.997 388.466 160.833 385.015C160.659 384.524 160.454 384.059 160.217 383.701C159.467 382.516 161.159 381.313 162.033 382.412Z" fill="#531A01"/>
</g>
<defs>
<clipPath id="clip0_1_2">
<rect width="500" height="500" fill="white"/>
</clipPath>
</defs>
</svg>
